<?xml version="1.0" encoding="utf-8"?><svg xml:space="preserve" viewBox="0 0 100 100" y="0" x="0" xmlns="http://www.w3.org/2000/svg" id="Layer_1" version="1.1" width="47px" height="47px" xmlns:xlink="http://www.w3.org/1999/xlink" style="width:100%;height:100%;background-size:initial;background-repeat-y:initial;background-repeat-x:initial;background-position-y:initial;background-position-x:initial;background-origin:initial;background-color:initial;background-clip:initial;background-attachment:initial;animation-play-state:paused" ><g class="ldl-scale" style="transform-origin:50% 50%;transform:rotate(0deg) scale(0.8, 0.8);animation-play-state:paused" ><ellipse fill="#e6e6e6" ry="4.5" rx="18.667" cy="37.464" cx="72.015" transform="rotate(-30 72.012 37.467)" style="fill:rgb(230, 230, 230);animation-play-state:paused" ></ellipse>
<ellipse fill="#e6e6e6" ry="18.667" rx="4.5" cy="54.547" cx="74.922" transform="rotate(-80.003 74.919 54.549)" style="fill:rgb(230, 230, 230);animation-play-state:paused" ></ellipse>
<ellipse fill="#e6e6e6" ry="18.667" rx="4.5" cy="69.503" cx="66.169" transform="rotate(-40.002 66.166 69.503)" style="fill:rgb(230, 230, 230);animation-play-state:paused" ></ellipse>
<ellipse fill="#e6e6e6" ry="18.667" rx="4.5" cy="75.333" cx="49.849" style="fill:rgb(230, 230, 230);animation-play-state:paused" ></ellipse>
<ellipse fill="#e6e6e6" ry="4.5" rx="18.667" cy="69.31" cx="33.601" transform="rotate(-49.998 33.604 69.314)" style="fill:rgb(230, 230, 230);animation-play-state:paused" ></ellipse>
<ellipse fill="#e6e6e6" ry="4.5" rx="18.667" cy="54.251" cx="25.025" transform="rotate(-10.003 25.028 54.267)" style="fill:rgb(230, 230, 230);animation-play-state:paused" ></ellipse>
<ellipse fill="#e6e6e6" ry="18.667" rx="4.5" cy="37.203" cx="28.136" transform="rotate(-60 28.136 37.204)" style="fill:rgb(230, 230, 230);animation-play-state:paused" ></ellipse>
<ellipse fill="#e6e6e6" ry="18.667" rx="4.5" cy="26.143" cx="41.477" transform="rotate(-19.999 41.48 26.144)" style="fill:rgb(230, 230, 230);animation-play-state:paused" ></ellipse>
<ellipse fill="#e6e6e6" ry="4.5" rx="18.667" cy="26.246" cx="58.806" transform="rotate(-70.001 58.805 26.246)" style="fill:rgb(230, 230, 230);animation-play-state:paused" ></ellipse>
<ellipse fill="#e0e0e0" ry="4.5" rx="18.667" cy="30.69" cx="66.399" transform="rotate(-49.998 66.404 30.691)" style="fill:rgb(224, 224, 224);animation-play-state:paused" ></ellipse>
<ellipse fill="#e0e0e0" ry="4.5" rx="18.667" cy="45.749" cx="74.975" transform="rotate(-10.003 74.992 45.767)" style="fill:rgb(224, 224, 224);animation-play-state:paused" ></ellipse>
<ellipse fill="#e0e0e0" ry="18.667" rx="4.5" cy="62.797" cx="71.864" transform="rotate(-60 71.865 62.8)" style="fill:rgb(224, 224, 224);animation-play-state:paused" ></ellipse>
<ellipse fill="#e0e0e0" ry="18.667" rx="4.5" cy="73.857" cx="58.523" transform="rotate(-19.999 58.527 73.86)" style="fill:rgb(224, 224, 224);animation-play-state:paused" ></ellipse>
<ellipse fill="#e0e0e0" ry="4.5" rx="18.667" cy="73.754" cx="41.194" transform="rotate(-70.001 41.193 73.753)" style="fill:rgb(224, 224, 224);animation-play-state:paused" ></ellipse>
<ellipse fill="#e0e0e0" ry="4.5" rx="18.667" cy="62.536" cx="27.985" transform="rotate(-30 27.982 62.537)" style="fill:rgb(224, 224, 224);animation-play-state:paused" ></ellipse>
<ellipse fill="#e0e0e0" ry="18.667" rx="4.5" cy="45.453" cx="25.078" transform="rotate(-80.003 25.076 45.452)" style="fill:rgb(224, 224, 224);animation-play-state:paused" ></ellipse>
<ellipse fill="#e0e0e0" ry="18.667" rx="4.5" cy="30.497" cx="33.831" transform="rotate(-40.002 33.83 30.497)" style="fill:rgb(224, 224, 224);animation-play-state:paused" ></ellipse>
<ellipse fill="#e0e0e0" ry="18.667" rx="4.5" cy="24.667" cx="50.151" style="fill:rgb(224, 224, 224);animation-play-state:paused" ></ellipse>
<circle fill="#f7b26a" r="12.5" cy="50" cx="50" style="fill:rgb(247, 178, 106);animation-play-state:paused" ></circle>
<metadata xmlns:d="https://loading.io/stock/" style="animation-play-state:paused" ><d:name style="animation-play-state:paused" >flower</d:name>


<d:tags style="animation-play-state:paused" >flower,daisy,sunflower,blossom,bloom,floret</d:tags>


<d:license style="animation-play-state:paused" >by</d:license>


<d:slug style="animation-play-state:paused" >xxvcfj</d:slug></metadata></g><!-- generated by https://loading.io/ --></svg>